<?xml version="1.0" encoding="UTF-8" standalone="no"?>
<!DOCTYPE svg PUBLIC "-//W3C//DTD SVG 1.1//EN"
 "http://www.w3.org/Graphics/SVG/1.1/DTD/svg11.dtd">
<!-- Generated by graphviz version 2.42.4 (0)
 -->
<!-- Title: Display Pages: 1 -->
<svg width="372pt" height="204pt"
 viewBox="0.00 0.00 371.50 204.00" xmlns="http://www.w3.org/2000/svg" xmlns:xlink="http://www.w3.org/1999/xlink">
<g id="graph0" class="graph" transform="scale(1 1) rotate(0) translate(4 200)">
<title>Display</title>
<polygon fill="white" stroke="transparent" points="-4,4 -4,-200 367.5,-200 367.5,4 -4,4"/>
<!-- Main Menu -->
<g id="node1" class="node">
<title>Main Menu</title>
<polygon fill="none" stroke="black" points="200.5,-196 135.5,-196 135.5,-160 200.5,-160 200.5,-196"/>
<text text-anchor="middle" x="168" y="-175.5" font-family="Times,serif" font-size="10.00" fill="blue">Main Menu</text>
</g>
<!-- Main Menu&#45;&gt;Main Menu -->
<g id="edge1" class="edge">
<title>Main Menu&#45;&gt;Main Menu</title>
<path fill="none" stroke="black" d="M200.54,-185.49C210.6,-185.34 218.5,-182.84 218.5,-178 218.5,-174.97 215.41,-172.86 210.64,-171.67"/>
<polygon fill="none" stroke="black" points="210.88,-168.17 200.54,-170.51 210.08,-175.13 210.88,-168.17"/>
<text text-anchor="middle" x="231" y="-176.4" font-family="Times,serif" font-size="7.00" fill="red">opt:save</text>
</g>
<!-- BPM View -->
<g id="node2" class="node">
<title>BPM View</title>
<polygon fill="none" stroke="black" points="125.5,-116 64.5,-116 64.5,-80 125.5,-80 125.5,-116"/>
<text text-anchor="middle" x="95" y="-95.5" font-family="Times,serif" font-size="10.00" fill="blue">BPM View</text>
</g>
<!-- Main Menu&#45;&gt;BPM View -->
<g id="edge2" class="edge">
<title>Main Menu&#45;&gt;BPM View</title>
<path fill="none" stroke="black" d="M135.45,-166.34C123.53,-160.86 111.01,-152.97 103,-142 99.64,-137.4 97.57,-131.8 96.31,-126.19"/>
<polygon fill="none" stroke="black" points="99.77,-125.65 94.83,-116.28 92.84,-126.69 99.77,-125.65"/>
</g>
<!-- Config -->
<g id="node3" class="node">
<title>Config</title>
<polygon fill="none" stroke="black" points="201,-116 147,-116 147,-80 201,-80 201,-116"/>
<text text-anchor="middle" x="174" y="-95.5" font-family="Times,serif" font-size="10.00" fill="blue">Config</text>
</g>
<!-- Main Menu&#45;&gt;Config -->
<g id="edge4" class="edge">
<title>Main Menu&#45;&gt;Config</title>
<path fill="none" stroke="black" d="M165.95,-159.8C165.34,-151.92 165.04,-142.47 166,-134 166.29,-131.45 166.69,-128.82 167.16,-126.2"/>
<polygon fill="none" stroke="black" points="170.61,-126.82 169.23,-116.31 163.75,-125.38 170.61,-126.82"/>
</g>
<!-- MIDI Messages -->
<g id="node4" class="node">
<title>MIDI Messages</title>
<polygon fill="none" stroke="black" points="301,-116 221,-116 221,-80 301,-80 301,-116"/>
<text text-anchor="middle" x="261" y="-95.5" font-family="Times,serif" font-size="10.00" fill="blue">MIDI Messages</text>
</g>
<!-- Main Menu&#45;&gt;MIDI Messages -->
<g id="edge6" class="edge">
<title>Main Menu&#45;&gt;MIDI Messages</title>
<path fill="none" stroke="black" d="M188.64,-159.69C201.52,-148.88 218.29,-134.82 232.44,-122.95"/>
<polygon fill="none" stroke="black" points="235.01,-125.37 240.42,-116.26 230.51,-120.01 235.01,-125.37"/>
</g>
<!-- BPM View&#45;&gt;Main Menu -->
<g id="edge3" class="edge">
<title>BPM View&#45;&gt;Main Menu</title>
<path fill="none" stroke="black" d="M111.16,-116.26C121.07,-126.86 133.93,-140.59 144.91,-152.32"/>
<polygon fill="none" stroke="black" points="142.41,-154.78 151.8,-159.69 147.52,-150 142.41,-154.78"/>
<text text-anchor="middle" x="141.5" y="-136.4" font-family="Times,serif" font-size="7.00" fill="red">click</text>
</g>
<!-- Config&#45;&gt;Main Menu -->
<g id="edge5" class="edge">
<title>Config&#45;&gt;Main Menu</title>
<path fill="none" stroke="black" d="M172.67,-116.26C171.92,-126.05 170.96,-138.52 170.11,-149.61"/>
<polygon fill="none" stroke="black" points="166.61,-149.45 169.33,-159.69 173.59,-149.99 166.61,-149.45"/>
<text text-anchor="middle" x="187" y="-136.4" font-family="Times,serif" font-size="7.00" fill="red">opt:return</text>
</g>
<!-- MIDI Channel -->
<g id="node5" class="node">
<title>MIDI Channel</title>
<polygon fill="none" stroke="black" points="76,-36 0,-36 0,0 76,0 76,-36"/>
<text text-anchor="middle" x="38" y="-15.5" font-family="Times,serif" font-size="10.00" fill="blue">MIDI Channel</text>
</g>
<!-- Config&#45;&gt;MIDI Channel -->
<g id="edge8" class="edge">
<title>Config&#45;&gt;MIDI Channel</title>
<path fill="none" stroke="black" d="M146.65,-84.8C142.45,-83.09 138.13,-81.43 134,-80 105.28,-70.03 92.85,-79.52 68,-62 61.66,-57.53 56.21,-51.27 51.77,-44.9"/>
<polygon fill="none" stroke="black" points="54.65,-42.9 46.34,-36.32 48.73,-46.64 54.65,-42.9"/>
</g>
<!-- CC Tap Key -->
<g id="node6" class="node">
<title>CC Tap Key</title>
<polygon fill="none" stroke="black" points="161.5,-36 94.5,-36 94.5,0 161.5,0 161.5,-36"/>
<text text-anchor="middle" x="128" y="-15.5" font-family="Times,serif" font-size="10.00" fill="blue">CC Tap Key</text>
</g>
<!-- Config&#45;&gt;CC Tap Key -->
<g id="edge10" class="edge">
<title>Config&#45;&gt;CC Tap Key</title>
<path fill="none" stroke="black" d="M154.09,-79.92C148.89,-74.62 143.71,-68.46 140,-62 137.15,-57.04 134.95,-51.37 133.26,-45.81"/>
<polygon fill="none" stroke="black" points="136.63,-44.9 130.73,-36.1 129.86,-46.66 136.63,-44.9"/>
</g>
<!-- Config Switch 1 -->
<g id="node7" class="node">
<title>Config Switch 1</title>
<polygon fill="none" stroke="black" points="262.5,-36 179.5,-36 179.5,0 262.5,0 262.5,-36"/>
<text text-anchor="middle" x="221" y="-15.5" font-family="Times,serif" font-size="10.00" fill="blue">Config Switch 1</text>
</g>
<!-- Config&#45;&gt;Config Switch 1 -->
<g id="edge12" class="edge">
<title>Config&#45;&gt;Config Switch 1</title>
<path fill="none" stroke="black" d="M184.43,-79.69C190.58,-69.49 198.47,-56.39 205.35,-44.97"/>
<polygon fill="none" stroke="black" points="208.44,-46.63 210.6,-36.26 202.44,-43.02 208.44,-46.63"/>
</g>
<!-- Config Switch 2 -->
<g id="node8" class="node">
<title>Config Switch 2</title>
<polygon fill="none" stroke="black" points="363.5,-36 280.5,-36 280.5,0 363.5,0 363.5,-36"/>
<text text-anchor="middle" x="322" y="-15.5" font-family="Times,serif" font-size="10.00" fill="blue">Config Switch 2</text>
</g>
<!-- Config&#45;&gt;Config Switch 2 -->
<g id="edge14" class="edge">
<title>Config&#45;&gt;Config Switch 2</title>
<path fill="none" stroke="black" d="M201.15,-82.69C223.37,-70.98 255.17,-54.22 280.57,-40.83"/>
<polygon fill="none" stroke="black" points="282.39,-43.83 289.61,-36.07 279.13,-37.64 282.39,-43.83"/>
</g>
<!-- MIDI Messages&#45;&gt;Main Menu -->
<g id="edge7" class="edge">
<title>MIDI Messages&#45;&gt;Main Menu</title>
<path fill="none" stroke="black" d="M250.57,-116.24C244.9,-124.68 237.35,-134.59 229,-142 223.09,-147.24 216.28,-152.07 209.39,-156.36"/>
<polygon fill="none" stroke="black" points="207.52,-153.4 200.69,-161.49 211.08,-159.43 207.52,-153.4"/>
<text text-anchor="middle" x="252" y="-136.4" font-family="Times,serif" font-size="7.00" fill="red">opt:return</text>
</g>
<!-- MIDI Channel&#45;&gt;Config -->
<g id="edge9" class="edge">
<title>MIDI Channel&#45;&gt;Config</title>
<path fill="none" stroke="black" d="M67.98,-36.2C88.58,-48.01 116.03,-63.75 137.84,-76.26"/>
<polygon fill="none" stroke="black" points="136.39,-79.46 146.81,-81.4 139.87,-73.39 136.39,-79.46"/>
<text text-anchor="middle" x="118.5" y="-56.4" font-family="Times,serif" font-size="7.00" fill="red">click</text>
</g>
<!-- CC Tap Key&#45;&gt;Config -->
<g id="edge11" class="edge">
<title>CC Tap Key&#45;&gt;Config</title>
<path fill="none" stroke="black" d="M138.18,-36.26C144.19,-46.45 151.92,-59.55 158.65,-70.98"/>
<polygon fill="none" stroke="black" points="155.7,-72.85 163.79,-79.69 161.73,-69.3 155.7,-72.85"/>
<text text-anchor="middle" x="160.5" y="-56.4" font-family="Times,serif" font-size="7.00" fill="red">click</text>
</g>
<!-- Config Switch 1&#45;&gt;Config -->
<g id="edge13" class="edge">
<title>Config Switch 1&#45;&gt;Config</title>
<path fill="none" stroke="black" d="M213.52,-36.13C209.79,-44.17 205.01,-53.77 200,-62 198.04,-65.23 195.85,-68.53 193.6,-71.75"/>
<polygon fill="none" stroke="black" points="190.66,-69.85 187.61,-79.99 196.32,-73.96 190.66,-69.85"/>
<text text-anchor="middle" x="220" y="-56.4" font-family="Times,serif" font-size="7.00" fill="red">opt:return</text>
</g>
<!-- Config Switch 2&#45;&gt;Config -->
<g id="edge15" class="edge">
<title>Config Switch 2&#45;&gt;Config</title>
<path fill="none" stroke="black" d="M300.58,-36.19C289.27,-44.71 274.88,-54.72 261,-62 240.45,-72.78 233.49,-71.26 212,-80 211.56,-80.18 211.13,-80.36 210.69,-80.54"/>
<polygon fill="none" stroke="black" points="209.14,-77.39 201.3,-84.52 211.87,-83.84 209.14,-77.39"/>
<text text-anchor="middle" x="288" y="-56.4" font-family="Times,serif" font-size="7.00" fill="red">opt:return</text>
</g>
</g>
</svg>
